<?xml version="1.0" encoding="UTF-8" standalone="no"?>
<!DOCTYPE svg PUBLIC "-//W3C//DTD SVG 1.1//EN"
 "http://www.w3.org/Graphics/SVG/1.1/DTD/svg11.dtd">
<!-- Generated by graphviz version 12.2.1 (20241206.2353)
 -->
<!-- Title: G Pages: 1 -->
<svg width="472pt" height="260pt"
 viewBox="0.00 0.00 471.91 260.00" xmlns="http://www.w3.org/2000/svg" xmlns:xlink="http://www.w3.org/1999/xlink">
<g id="graph0" class="graph" transform="scale(1 1) rotate(0) translate(4 256)">
<title>G</title>
<polygon fill="white" stroke="none" points="-4,4 -4,-256 467.91,-256 467.91,4 -4,4"/>
<!-- azurerm_resource_group.rg -->
<g id="node1" class="node">
<title>azurerm_resource_group.rg</title>
<ellipse fill="none" stroke="black" cx="205.26" cy="-90" rx="113.79" ry="18"/>
<text text-anchor="middle" x="205.26" y="-84.95" font-family="Times,serif" font-size="14.00">azurerm_resource_group.rg</text>
</g>
<!-- random_integer.ri -->
<g id="node2" class="node">
<title>random_integer.ri</title>
<ellipse fill="none" stroke="black" cx="205.26" cy="-18" rx="77.45" ry="18"/>
<text text-anchor="middle" x="205.26" y="-12.95" font-family="Times,serif" font-size="14.00">random_integer.ri</text>
</g>
<!-- azurerm_resource_group.rg&#45;&gt;random_integer.ri -->
<g id="edge1" class="edge">
<title>azurerm_resource_group.rg&#45;&gt;random_integer.ri</title>
<path fill="none" stroke="black" d="M205.26,-71.7C205.26,-64.41 205.26,-55.73 205.26,-47.54"/>
<polygon fill="black" stroke="black" points="208.76,-47.62 205.26,-37.62 201.76,-47.62 208.76,-47.62"/>
</g>
<!-- azurerm_service_plan.appserviceplan -->
<g id="node3" class="node">
<title>azurerm_service_plan.appserviceplan</title>
<ellipse fill="none" stroke="black" cx="313.26" cy="-162" rx="150.64" ry="18"/>
<text text-anchor="middle" x="313.26" y="-156.95" font-family="Times,serif" font-size="14.00">azurerm_service_plan.appserviceplan</text>
</g>
<!-- azurerm_service_plan.appserviceplan&#45;&gt;azurerm_resource_group.rg -->
<g id="edge3" class="edge">
<title>azurerm_service_plan.appserviceplan&#45;&gt;azurerm_resource_group.rg</title>
<path fill="none" stroke="black" d="M286.84,-143.88C273.01,-134.91 255.88,-123.81 240.89,-114.09"/>
<polygon fill="black" stroke="black" points="242.98,-111.27 232.68,-108.77 239.17,-117.15 242.98,-111.27"/>
</g>
<!-- azurerm_service_plan.appserviceplan&#45;&gt;random_integer.ri -->
<g id="edge2" class="edge">
<title>azurerm_service_plan.appserviceplan&#45;&gt;random_integer.ri</title>
<path fill="none" stroke="black" d="M322.82,-143.79C332.01,-124.7 342.56,-93.73 328.26,-72 316.13,-53.56 296.07,-41.5 275.65,-33.64"/>
<polygon fill="black" stroke="black" points="276.99,-30.4 266.4,-30.39 274.68,-37.01 276.99,-30.4"/>
</g>
<!-- azurerm_linux_web_app.webapp -->
<g id="node4" class="node">
<title>azurerm_linux_web_app.webapp</title>
<ellipse fill="none" stroke="black" cx="134.26" cy="-234" rx="134.26" ry="18"/>
<text text-anchor="middle" x="134.26" y="-228.95" font-family="Times,serif" font-size="14.00">azurerm_linux_web_app.webapp</text>
</g>
<!-- azurerm_linux_web_app.webapp&#45;&gt;azurerm_resource_group.rg -->
<g id="edge4" class="edge">
<title>azurerm_linux_web_app.webapp&#45;&gt;azurerm_resource_group.rg</title>
<path fill="none" stroke="black" d="M135.11,-215.62C136.65,-196.93 141,-166.82 153.26,-144 158.85,-133.61 167.08,-123.88 175.36,-115.66"/>
<polygon fill="black" stroke="black" points="177.55,-118.4 182.45,-109.01 172.76,-113.3 177.55,-118.4"/>
</g>
<!-- azurerm_linux_web_app.webapp&#45;&gt;random_integer.ri -->
<g id="edge6" class="edge">
<title>azurerm_linux_web_app.webapp&#45;&gt;random_integer.ri</title>
<path fill="none" stroke="black" d="M119.56,-215.71C95.09,-184.72 51.59,-118.62 82.26,-72 94.4,-53.56 114.45,-41.5 134.88,-33.64"/>
<polygon fill="black" stroke="black" points="135.85,-37.01 144.13,-30.39 133.54,-30.4 135.85,-37.01"/>
</g>
<!-- azurerm_linux_web_app.webapp&#45;&gt;azurerm_service_plan.appserviceplan -->
<g id="edge5" class="edge">
<title>azurerm_linux_web_app.webapp&#45;&gt;azurerm_service_plan.appserviceplan</title>
<path fill="none" stroke="black" d="M176.23,-216.59C201.32,-206.78 233.42,-194.22 260.25,-183.73"/>
<polygon fill="black" stroke="black" points="261.18,-187.13 269.22,-180.22 258.63,-180.61 261.18,-187.13"/>
</g>
</g>
</svg>
